<svg xmlns="http://www.w3.org/2000/svg" viewBox="0 0 284.13 298.06"><defs><style>.cls-1{fill:#030201;}.cls-2{fill:#998104;}.cls-3{fill:#e4c106;}</style></defs><g id="Layer_2" data-name="Layer 2"><g id="Layer_1-2" data-name="Layer 1"><path class="cls-1" d="M198.07,297c-.42.33-.84,1-1.26,1-5.57.07-11.14.1-16.71,0a11,11,0,0,1-3-1c0-6.64,0-13.28,0-19.93,0-3.7-.31-4-3.77-4.06q-6.72-.06-13.45,0c-3.45,0-3.75.36-3.77,4.06,0,6.65,0,13.29,0,19.93a11.61,11.61,0,0,1-3.06,1q-7.94.15-15.88,0a11.5,11.5,0,0,1-3.06-1V273H116.38a3.55,3.55,0,0,0-3.28,2.56,19.74,19.74,0,0,0,0,3V297a11.5,11.5,0,0,1-3.06,1q-7.44.15-14.88,0a11.5,11.5,0,0,1-3.06-1c0-6.64,0-13.28,0-19.93,0-3.7-.31-4-3.77-4.06q-6.72-.06-13.45,0c-3.45,0-3.75.36-3.77,4.06,0,6.65,0,13.29,0,19.93A11.61,11.61,0,0,1,68,298q-7.94.15-15.88,0a11.5,11.5,0,0,1-3.06-1V273c-6.1,0-11.9,0-17.69,0-2.74,0-3.29.63-3.3,3.54,0,6.82,0,13.63,0,20.45A11.33,11.33,0,0,1,25,298c-7.16.09-14.33.07-21.49,0-2.8,0-3.4-.62-3.41-3.45q0-9.49,0-19c0-2.91.56-3.49,3.32-3.54s5.33,0,8,0c1.76-.05,2.54-.92,2.68-2.69,0-.16,0-.33,0-.5,0-2.66.71-5.61-.2-7.92s-3.41-3.92-5.25-5.81-3.46-3.62-5.32-5.29A9.55,9.55,0,0,1,0,242.13c.1-17.33.13-34.66,0-52a10.21,10.21,0,0,1,3.5-8.08c2.67-2.51,5.18-5.2,7.81-7.75a8.9,8.9,0,0,0,2.81-6.86c-.09-21.49,0-43-.11-64.48a10,10,0,0,1,3.26-7.69C23.69,89,30,82.58,36.38,76.22a8.83,8.83,0,0,1,1.07-1c1.13-.85,2.9-1.44,3.32-2.54.61-1.6.29-3.57.29-5.38q0-30.75,0-61.49c0-1.16,0-2.33,0-3.49A2.19,2.19,0,0,1,43.21,0C44,0,44.88,0,45.71,0H192.17c.83,0,1.67-.07,2.5,0a2.35,2.35,0,0,1,2.4,2.47v1q0,16.49,0,33c0,2.89-.58,3.45-3.34,3.52-1.66,0-3.33-.05-5,0s-2.52.93-2.65,2.71c0,.33,0,.67,0,1,0,8.83,0,17.66,0,26.49,0,3.48.35,3.78,4.08,3.78,20.83,0,41.66.08,62.49-.06a10.91,10.91,0,0,1,8.54,3.62c6.38,6.58,12.89,13,19.43,19.46a10.49,10.49,0,0,1,3.51,8.08q-.13,94-.06,188c0,.83,0,1.67,0,2.5a2.27,2.27,0,0,1-2.41,2.44c-5.83.05-11.66.05-17.49,0-.7,0-1.4-.62-2.09-1,0-6.64,0-13.28,0-19.93,0-3.7-.31-4-3.77-4.06q-6.72-.06-13.45,0c-3.45,0-3.75.36-3.77,4.06,0,6.65,0,13.29,0,19.93a8.23,8.23,0,0,1-2.54,1c-5.9.09-11.79.06-17.69,0-.26,0-.52-.63-.77-1V278.6a19.87,19.87,0,0,0,0-3,3.58,3.58,0,0,0-3.25-2.58H201.35a3.58,3.58,0,0,0-3.25,2.58,19.87,19.87,0,0,0,0,3ZM52.17,231c4.73,0,9.36-.14,14,0a9.3,9.3,0,0,0,7.68-3.26c2.38-2.57,4.9-5,7.41-7.44,2-2,2.67-2,4.81.15q4.45,4.38,8.83,8.84c.92.95,1.57.83,2.44-.06,3.15-3.21,6.37-6.35,9.51-9.57.89-.9,1.54-1,2.45,0,2.9,3,5.88,5.89,8.81,8.85a7.07,7.07,0,0,0,5,2.46c5.5,0,11,0,16.5,0,1,0,1.26-.27,1.6-1.28a9.14,9.14,0,0,0,.93-3.12q-.1-9,0-18a6.71,6.71,0,0,0-2-5.16c-2.14-2.1-4.21-4.28-6.38-6.35a7.27,7.27,0,0,0-5.61-2.16c-2.66.15-5.34-.09-8,.08a5,5,0,0,1-4.29-1.78c-7-7.14-14.14-14.14-21.16-21.26A9.49,9.49,0,0,0,87.35,169c-16.16.1-32.32.07-48.48,0A4.88,4.88,0,0,0,35,170.55c-6.3,6.43-12.67,12.77-19.06,19.11a9,9,0,0,0-2.9,6.82q.17,19,0,38a8.86,8.86,0,0,0,2.82,6.85c4.75,4.68,9.52,9.34,14.11,14.16A11.1,11.1,0,0,0,38.5,259h97a20,20,0,0,0,3,0,3.55,3.55,0,0,0,2.6-3.24c0-3.5.05-7,0-10.5,0-2.49-.71-3.2-3.13-3.22-5.67,0-11.33,0-17,0a7.35,7.35,0,0,1-5.58-2.24c-1.4-1.42-2.8-2.85-4.25-4.23a2,2,0,0,0-3,0c-1.45,1.37-2.73,2.94-4.28,4.18a8.84,8.84,0,0,1-4,2.19c-3,.33-6.16.69-8.93-.1-2-.57-3.39-3-5-4.63-.36-.34-.7-.72-1.07-1-1.65-1.53-2.55-1.58-4.11-.11a50.65,50.65,0,0,1-3.93,3.83c-1.2.93-2.69,2-4.09,2.06-6.78.21-13.56.1-20.38.1Zm143-48h28.08c2-.14,2.7-.92,2.77-3.09,0-1,0-2,0-3V94.06c0-1,0-2,0-3-.07-2.16-.78-3-2.83-3-9.29,0-18.58,0-28,0ZM180.93,88h-15.6c-2.66,0-5.33,0-8,0s-3.18.7-3.27,3.09c0,1,0,2,0,3V176c0,1.33,0,2.66,0,4,.06,2.16.77,3,2.83,3,8,0,15.92,0,24,0Zm-40,0c-5.76,0-11.39,0-17,0-2.07,0-2.76.84-2.85,3,0,.67,0,1.33,0,2v89.73h19.87Zm57.9,171q21.25,0,42.49,0a6.1,6.1,0,0,0,1.74-.53,5.7,5.7,0,0,0-.77-1.67c-6.43-6.64-13.26-12.87-19.11-20.07a101.8,101.8,0,0,0-7.38-7.46c-2.82-2.8-5.3-3.09-8.53-.94-5.1,3.39-10.11,6.92-15.28,10.2a13.93,13.93,0,0,1-8.46,2.56c-4.49-.26-9-.06-13.5-.06-4.66,0-9.33,0-14,0-2.16,0-2.93.76-3,2.89-.05,4,0,8,0,12,0,2.18.78,3,2.77,3.09.83.05,1.66,0,2.5,0ZM181.06,15H130.28c-.34,0-.79-.14-1,0a8.43,8.43,0,0,0-2.16,2.18c-.35.65-.07,1.63-.07,2.47v46c0,.66,0,1.33,0,2-.09,1.11.61,1.09,1.4,1.47a5.53,5.53,0,0,0,2.63.91c3.33-.06,6.67,0,10,0,2.16,0,2.93-.76,3-2.88.06-4.16,0-8.33,0-12.49,0-3.18.44-3.58,3.76-3.6,4.83,0,9.66,0,14.49,0,2,0,4,0,6,0,1.8-.06,2.67-.88,2.72-2.62.07-2.66.1-5.33,0-8A2.25,2.25,0,0,0,168.56,38h-3c-6.16,0-12.33,0-18.49,0-2.16,0-2.91-.76-3-2.86-.06-1.66,0-3.33,0-5s0-1.91,2-2.56a12.29,12.29,0,0,1,3.77-.55c9.16,0,18.32,0,27.48,0,1.27,0,2.53-.11,3.76-.17Zm-108,23c0-2.87,0-5.51,0-8.14.06-2.08.84-2.83,3-2.85,5.5,0,11,0,16.49,0,4.83,0,9.67,0,14.5,0,2.16,0,2.92-.76,3-2.86s.07-4.33,0-6.49c-.06-1.73-.93-2.52-2.73-2.62-.83,0-1.67,0-2.5,0q-22.48,0-45,0c-1.26,0-2.53.1-3.77.16V64.53c0,1,0,2,0,3A2.24,2.24,0,0,0,58.44,70c3.67.11,7.34.12,11,0,2.53-.08,3.61-1.31,3.62-3.72,0-4.16,0-8.33,0-12.49A2.42,2.42,0,0,1,75.69,51c1.16-.07,2.33,0,3.49,0,6,0,12,0,18,0,2.11,0,2.83-.8,2.88-3,0-2.49,0-5,0-7.49a2.33,2.33,0,0,0-2.36-2.5,25,25,0,0,0-3,0ZM53.44,123h18c2.33,0,4.67,0,7,0a4.46,4.46,0,0,0,3.63-3.32,13.94,13.94,0,0,0-2.36-9.52c-3.07-4.39-6.22-8.73-9.16-13.21-1.65-2.53-3.09-5.18-5.31-7.31A4.87,4.87,0,0,0,61.4,88c-4.5.14-9,.09-13.5,0a7.35,7.35,0,0,0-5.58,2.25c-5,5.08-10.1,10.16-15.22,15.18A3.19,3.19,0,0,0,26.05,108c.05,3.66,0,7.33,0,11s.42,4,3.88,4C37.78,123.05,45.61,123,53.44,123Zm200.21,87c-3.82,0-7.66.24-11.46-.06-6.34-.49-10.48,3.72-15.18,6.71-1.46.94-1.28,2.34-.09,3.7,2.69,3,5.29,6.18,8.13,9.08,7.09,7.24,14.29,14.38,21.5,21.5,1,1,2.34,1.61,3.42,2.51.74.62,1.34.83,2.08.08,2.46-2.47,5.07-4.81,7.33-7.46a6.4,6.4,0,0,0,1.73-4.25c-.09-9.64,0-19.28-.06-28.91,0-2.13-.79-2.87-2.94-2.89C263.29,210,258.47,210,253.65,210ZM26.07,159.76a3.29,3.29,0,0,0,.78.26,1.91,1.91,0,0,0,.91-.21c3.23-2.41,6.86-2.89,10.83-2.84,13.14.16,26.29.07,39.43.05,3.64,0,4-.36,4-3.81,0-4,0-8,0-12S80.85,136,76.82,136H30.41a12.12,12.12,0,0,0-2,0c-1.4.22-2.35.9-2.35,2.51C26.08,145.67,26.07,152.77,26.07,159.76Zm212-55.08c0,4.65,0,9.29,0,13.94,0,2.84,1.62,4.39,4.52,4.4,8,0,15.94,0,23.91,0a11,11,0,0,0,2,0,3.64,3.64,0,0,0,2.56-3.27c0-3.65,0-7.31,0-11a7.25,7.25,0,0,0-2.29-5.54c-4.37-4.32-8.69-8.69-13-13A7.26,7.26,0,0,0,250.19,88c-3,.1-6,0-9,0-2.44,0-3.12.72-3.15,3.19C238,95.71,238.07,100.19,238.07,104.68Zm33,31.35c-10.14,0-19.92,0-29.69,0-2.55,0-3.28.68-3.3,3q-.06,9,0,17.93c0,2.33.75,3,3.33,3q12.94,0,25.89,0c3.46,0,3.75-.35,3.76-4.08C271.08,149.47,271.07,143,271.07,136Zm-16,37c-4.66,0-9.32,0-14,0-2.16,0-3,.77-3,2.84-.05,5.83-.06,11.66,0,17.49a4,4,0,0,0,3.78,3.64q13.23.06,26.47,0a2.39,2.39,0,0,0,2.71-2.63q.07-9.24,0-18.48c0-2.09-.83-2.84-3-2.86C263.73,173,259.4,173,255.07,173Zm-143-67.85c0-4.66,0-9.32,0-14,0-2.44-.71-3.14-3.19-3.15q-13.23,0-26.47,0c-.43,0-1.08.18-1.24.49a1.56,1.56,0,0,0,.27,1.31c3.85,5.56,7.63,11.19,11.69,16.61a9.19,9.19,0,0,1,2,6.21c-.1,2.49-.07,5,0,7.49.06,2.09.83,2.83,3,2.86,3.5,0,7,0,10.49,0a3.22,3.22,0,0,0,3.49-2.86,15.9,15.9,0,0,0,0-2.49Z"/><path class="cls-2" d="M198.07,297V278.6a19.87,19.87,0,0,1,0-3,3.58,3.58,0,0,1,3.25-2.58h15.44a3.58,3.58,0,0,1,3.25,2.58,19.87,19.87,0,0,1,0,3V297Z"/><path class="cls-2" d="M28.07,297c0-6.82,0-13.63,0-20.45,0-2.91.56-3.52,3.3-3.54,5.79,0,11.59,0,17.69,0v24Z"/><path class="cls-2" d="M71.07,297c0-6.64,0-13.28,0-19.93,0-3.7.32-4,3.77-4.06q6.73-.06,13.45,0c3.46,0,3.76.36,3.77,4.06,0,6.65,0,13.29,0,19.93Z"/><path class="cls-2" d="M113.07,297V278.57a19.74,19.74,0,0,1,0-3,3.55,3.55,0,0,1,3.28-2.56h17.69v24Z"/><path class="cls-2" d="M156.07,297c0-6.64,0-13.28,0-19.93,0-3.7.32-4,3.77-4.06q6.74-.06,13.45,0c3.46,0,3.76.36,3.77,4.06,0,6.65,0,13.29,0,19.93Z"/><path class="cls-2" d="M241.07,297c0-6.64,0-13.28,0-19.93,0-3.7.32-4,3.77-4.06q6.74-.06,13.45,0c3.46,0,3.76.36,3.77,4.06,0,6.65,0,13.29,0,19.93Z"/><path class="cls-3" d="M52.17,231v11c6.82,0,13.6.11,20.38-.1,1.4,0,2.89-1.13,4.09-2.06A50.65,50.65,0,0,0,80.57,236c1.56-1.47,2.46-1.42,4.11.11.37.33.71.71,1.07,1,1.66,1.61,3.09,4.06,5,4.63,2.77.79,6,.43,8.93.1a8.84,8.84,0,0,0,4-2.19c1.55-1.24,2.83-2.81,4.28-4.18a2,2,0,0,1,3,0c1.45,1.38,2.85,2.81,4.25,4.23a7.35,7.35,0,0,0,5.58,2.24c5.67-.06,11.33-.05,17,0,2.42,0,3.09.73,3.13,3.22.05,3.5,0,7,0,10.5a3.55,3.55,0,0,1-2.6,3.24,20,20,0,0,1-3,0h-97A11.1,11.1,0,0,1,30,255.48c-4.59-4.82-9.36-9.48-14.11-14.16A8.86,8.86,0,0,1,13,234.47q.17-19,0-38a9,9,0,0,1,2.9-6.82C22.31,183.32,28.68,177,35,170.55A4.88,4.88,0,0,1,38.87,169c16.16.05,32.32.08,48.48,0A9.49,9.49,0,0,1,94.61,172c7,7.12,14.15,14.12,21.16,21.26a5,5,0,0,0,4.29,1.78c2.66-.17,5.34.07,8-.08a7.27,7.27,0,0,1,5.61,2.16c2.17,2.07,4.24,4.25,6.38,6.35a6.71,6.71,0,0,1,2,5.16q-.09,9,0,18a9.14,9.14,0,0,1-.93,3.12c-.34,1-.62,1.28-1.6,1.28-5.5,0-11,0-16.5,0a7.07,7.07,0,0,1-5-2.46c-2.93-3-5.91-5.87-8.81-8.85-.91-.94-1.56-.88-2.45,0-3.14,3.22-6.36,6.36-9.51,9.57-.87.89-1.52,1-2.44.06q-4.36-4.47-8.83-8.84c-2.14-2.1-2.78-2.12-4.81-.15-2.51,2.45-5,4.87-7.41,7.44a9.3,9.3,0,0,1-7.68,3.26C61.53,230.89,56.9,231,52.17,231Zm6.9-38.84h-24c0,7.11,0,14.06,0,21,0,2,.86,2.8,3,2.81q9,.06,17.93,0c2.16,0,3-.77,3-2.81C59.1,206.25,59.07,199.3,59.07,192.19Z"/><path class="cls-3" d="M195.21,183V88c9.44,0,18.73,0,28,0,2.05,0,2.76.85,2.83,3,0,1,0,2,0,3v82.88c0,1,0,2,0,3-.07,2.17-.78,2.95-2.77,3.09H195.21Z"/><path class="cls-3" d="M180.93,88v95c-8.1,0-16.06,0-24,0-2.06,0-2.77-.85-2.83-3-.05-1.33,0-2.66,0-4V94.12c0-1,0-2,0-3,.09-2.39.75-3,3.27-3.09s5.33,0,8,0Z"/><path class="cls-3" d="M140.94,88v94.75H121.07V93.05c0-.67,0-1.33,0-2,.09-2.16.78-3,2.85-3C129.55,88,135.18,88,140.94,88Z"/><path class="cls-3" d="M198.84,259H158.35c-.84,0-1.67,0-2.5,0-2-.12-2.74-.91-2.77-3.09,0-4-.05-8,0-12,0-2.13.8-2.87,3-2.89,4.67,0,9.34,0,14,0,4.5,0,9-.2,13.5.06a13.93,13.93,0,0,0,8.46-2.56c5.17-3.28,10.18-6.81,15.28-10.2,3.23-2.15,5.71-1.86,8.53.94a101.8,101.8,0,0,1,7.38,7.46c5.85,7.2,12.68,13.43,19.11,20.07a5.7,5.7,0,0,1,.77,1.67,6.1,6.1,0,0,1-1.74.53Q220.09,259,198.84,259Z"/><path class="cls-2" d="M181.06,15V26.85c-1.23.06-2.49.17-3.76.17-9.16,0-18.32,0-27.48,0a12.29,12.29,0,0,0-3.77.55c-2,.65-2,.76-2,2.56s0,3.33,0,5c.08,2.1.83,2.85,3,2.86,6.16,0,12.33,0,18.49,0h3A2.25,2.25,0,0,1,171,40.4c.12,2.66.09,5.33,0,8-.05,1.74-.92,2.56-2.72,2.62-2,.07-4,0-6,0-4.83,0-9.66,0-14.49,0-3.32,0-3.73.42-3.76,3.6,0,4.16,0,8.33,0,12.49,0,2.12-.8,2.85-3,2.88-3.33,0-6.67,0-10,0a5.53,5.53,0,0,1-2.63-.91c-.79-.38-1.49-.36-1.4-1.47,0-.66,0-1.33,0-2v-46c0-.84-.28-1.82.07-2.47a8.43,8.43,0,0,1,2.16-2.18c.19-.16.64,0,1,0Z"/><path class="cls-2" d="M73.07,38H94.71a25,25,0,0,1,3,0,2.33,2.33,0,0,1,2.36,2.5c0,2.5,0,5,0,7.49,0,2.17-.77,3-2.88,3-6,.05-12,0-18,0C78,51,76.85,51,75.69,51a2.42,2.42,0,0,0-2.6,2.75c-.06,4.16,0,8.33,0,12.49,0,2.41-1.09,3.64-3.62,3.72-3.66.11-7.33.1-11,0a2.24,2.24,0,0,1-2.37-2.47c0-1,0-2,0-3V15.2c1.24-.06,2.51-.16,3.77-.16q22.48,0,45,0c.83,0,1.67,0,2.5,0,1.8.1,2.67.89,2.73,2.62.07,2.16.07,4.33,0,6.49s-.82,2.85-3,2.86c-4.83,0-9.67,0-14.5,0-5.49,0-11,0-16.49,0-2.16,0-2.94.77-3,2.85C73,32.52,73.07,35.16,73.07,38Z"/><path class="cls-3" d="M53.44,123c-7.83,0-15.66,0-23.49,0-3.46,0-3.86-.45-3.88-4s0-7.34,0-11a3.19,3.19,0,0,1,1.05-2.59c5.12-5,10.17-10.1,15.22-15.18A7.35,7.35,0,0,1,47.9,88c4.5.06,9,.11,13.5,0a4.87,4.87,0,0,1,3.84,1.67c2.22,2.13,3.66,4.78,5.31,7.31,2.94,4.48,6.09,8.82,9.16,13.21a13.94,13.94,0,0,1,2.36,9.52A4.46,4.46,0,0,1,78.44,123c-2.33.07-4.67,0-7,0Z"/><path class="cls-3" d="M253.65,210c4.82,0,9.64,0,14.46,0,2.15,0,2.93.76,2.94,2.89,0,9.63,0,19.27.06,28.91a6.4,6.4,0,0,1-1.73,4.25c-2.26,2.65-4.87,5-7.33,7.46-.74.75-1.34.54-2.08-.08-1.08-.9-2.43-1.52-3.42-2.51-7.21-7.12-14.41-14.26-21.5-21.5-2.84-2.9-5.44-6-8.13-9.08-1.19-1.36-1.37-2.76.09-3.7,4.7-3,8.84-7.2,15.18-6.71C246,210.27,249.83,210,253.65,210Z"/><path class="cls-3" d="M26.07,159.76c0-7,0-14.09,0-21.2,0-1.61,1-2.29,2.35-2.51a12.12,12.12,0,0,1,2,0H76.82c4,0,5.22,1.21,5.24,5.2s0,8,0,12c0,3.45-.4,3.81-4,3.81-13.14,0-26.29.11-39.43-.05-4-.05-7.6.43-10.83,2.84a1.91,1.91,0,0,1-.91.21A3.29,3.29,0,0,1,26.07,159.76Z"/><path class="cls-3" d="M238.07,104.68c0-4.49,0-9,0-13.45,0-2.47.71-3.15,3.15-3.19,3-.05,6,.06,9,0a7.26,7.26,0,0,1,5.57,2.22c4.35,4.33,8.67,8.7,13,13a7.25,7.25,0,0,1,2.29,5.54c-.07,3.65,0,7.31,0,11A3.64,3.64,0,0,1,268.5,123a11,11,0,0,1-2,0c-8,0-15.94,0-23.91,0-2.9,0-4.49-1.56-4.52-4.4C238,114,238.07,109.33,238.07,104.68Z"/><path class="cls-3" d="M271.07,136c0,7,0,13.44,0,19.91,0,3.73-.3,4.07-3.76,4.08q-12.94,0-25.89,0c-2.58,0-3.31-.68-3.33-3q-.06-9,0-17.93c0-2.36.75-3,3.3-3C251.15,136,260.93,136,271.07,136Z"/><path class="cls-3" d="M255.07,173c4.33,0,8.66,0,13,0,2.16,0,3,.77,3,2.86q.07,9.24,0,18.48a2.39,2.39,0,0,1-2.71,2.63q-13.23.06-26.47,0a4,4,0,0,1-3.78-3.64c-.06-5.83-.05-11.66,0-17.49,0-2.07.84-2.82,3-2.84C245.75,173,250.41,173,255.07,173Z"/><path class="cls-3" d="M112.07,105.18v12.49a15.9,15.9,0,0,1,0,2.49,3.22,3.22,0,0,1-3.49,2.86c-3.5,0-7,0-10.49,0-2.16,0-2.93-.77-3-2.86-.06-2.5-.09-5,0-7.49a9.19,9.19,0,0,0-2-6.21c-4.06-5.42-7.84-11-11.69-16.61a1.56,1.56,0,0,1-.27-1.31c.16-.31.81-.49,1.24-.49q13.24,0,26.47,0c2.48,0,3.17.71,3.19,3.15C112.1,95.86,112.07,100.52,112.07,105.18Z"/><path class="cls-1" d="M59.07,192.19c0,7.11,0,14.06,0,21,0,2-.86,2.8-3,2.81q-9,.06-17.93,0c-2.15,0-3-.77-3-2.81-.05-6.95,0-13.9,0-21Z"/></g></g></svg>