<svg id="Layer_1" data-name="Layer 1" xmlns="http://www.w3.org/2000/svg" viewBox="0 0 240 240"><defs><style>.cls-1{fill:#c3a345;}.cls-2{fill:#726028;}.cls-3{fill:#f7cf58;}.cls-4{fill:#302710;}</style></defs><path d="M20.33,6.74H224.16V231.63H20.33ZM53.92,189.83v8.79H198.79V181.13H53.92Zm-4.49-148v-22H32.9v136.1c0,.87.07,1.74.1,2.61v60.32H211.35v-7.3h-170V168.15H211.49v-9.71c0-.5.09-1,.09-1.49q0-67.59,0-135.18c0-.7-.13-1.41-.2-2.13H62V41.78Z"/><path class="cls-1" d="M62,41.78V19.64h149.4c.07.72.2,1.43.2,2.13q0,67.59,0,135.18c0,.5-.06,1-.09,1.49-1.25,0-2.49.06-3.74.06H62q0-8.92-.07-17.85c0-3.8,0-7.59,0-11.39q0-8.88,0-17.77c0-3.8,0-7.59,0-11.39q0-8.88,0-17.77c0-3.8,0-7.59,0-11.39q0-8.88,0-17.77C62,49.37,62,45.58,62,41.78Zm76-11.3L111.84,56.61,137.19,82l26.14-26.26Zm6.87,58.81L170,114.76l26.3-26.28c-8.38-8.37-17-17-25.36-25.33Zm-66.93.57,25.69,25.7,25.86-25.9L104,64ZM137.6,97l-26.15,26.1,24.88,25.26,26.42-26.21C154.31,113.73,145.71,105.13,137.6,97Z"/><path class="cls-2" d="M62,158.5H207.75c1.25,0,2.49,0,3.74-.06v9.71H41.33v43.31h170v7.3H33V158.44l16.37.06Z"/><path class="cls-1" d="M49.37,158.5,33,158.44c0-.87-.1-1.74-.1-2.61V19.73H49.43V140.65Z"/><path class="cls-3" d="M53.92,189.83v-8.7H198.79v8.69c-1.49,0-3,.08-4.48.08H67.73C63.13,189.9,58.52,189.85,53.92,189.83Z"/><path class="cls-2" d="M53.92,189.83c4.6,0,9.21.07,13.81.07H194.31c1.5,0,3-.05,4.48-.08v8.8H53.92Z"/><path class="cls-2" d="M49.43,53.17V41.78H62c0,3.8,0,7.59,0,11.39Z"/><path class="cls-4" d="M138,30.48l25.34,25.25L137.19,82,111.84,56.61Z"/><path class="cls-4" d="M144.86,89.29,171,63.15c8.38,8.36,17,17,25.36,25.33L170,114.76Z"/><path class="cls-4" d="M77.93,89.86,104,64l25.47,25.7-25.86,25.9Z"/><path class="cls-4" d="M137.6,97c8.11,8.1,16.71,16.7,25.15,25.15l-26.42,26.21-24.88-25.26Z"/><path d="M49.43,53.17H62q0,8.88,0,17.77H49.43Z"/><path d="M49.43,100.1V82.33H62q0,8.88,0,17.77Z"/><path d="M49.43,129.26V111.49H62q0,8.88,0,17.77Z"/><path d="M49.37,158.5l.06-17.85H62q0,8.92.07,17.85Z"/><path class="cls-2" d="M62,82.33H49.43V70.94H62C62,74.74,62,78.53,62,82.33Z"/><path class="cls-2" d="M62,111.49H49.43V100.1H62C62,103.9,62,107.69,62,111.49Z"/><path class="cls-2" d="M62,140.65H49.43V129.26H62C62,133.06,62,136.85,62,140.65Z"/></svg>