<svg id="Layer_1" data-name="Layer 1" xmlns="http://www.w3.org/2000/svg" viewBox="0 0 200 200"><defs><style>.cls-1{fill:#040404;}.cls-2{fill:#6a71b4;}.cls-3{fill:#da4969;}</style></defs><path class="cls-1" d="M124.24,190.44H76.18c-.88-6.06-.13-12.18-.6-18.23-1.76-2.14-4.11-3.46-6.2-5.07C55.81,156.64,44.63,144,34.93,129.89a41.73,41.73,0,0,1-7.45-20.27c-1.35-14.51-1.69-28.84,1.35-43.21C33,46.88,44,32.37,60.37,21.58c3.67-2.41,5.27-2.23,8.36.7,4,3.75,7.11,7.8,6.43,13.82-.25,2.24.43,4.59.81,8,2.71-5,4.84-9.1,7.08-13.12,2.74-4.93,5.56-9.82,8.37-14.71a17,17,0,0,1,8.73-7.34,21.07,21.07,0,0,1,9.74,8.83c5,8.78,9.3,17.94,13.63,27.61,1.92-3.24,2-6.55,2.51-9.65a21,21,0,0,1,6.67-11.95c2.11-2,4.51-2.82,7.2-1C155.52,33.44,167.41,46.94,171.3,66c2.91,14.29,2.68,28.72,1.36,43.26-.88,9.64-5.07,17.38-10.51,24.82-10.19,13.94-21.94,26.33-36,36.45-.53.39-1,.83-1.91,1.57ZM88,177.82h23.93V160.53L127.09,150a111.22,111.22,0,0,0,23.62-22.75c10.55-13.32,8.78-28.61,9.14-43.85H135.93c-1.15,2-.8,3.69-.89,5.32a80,80,0,0,1-2.14,13.78,13,13,0,0,1-4.71,7.46,52.63,52.63,0,0,1-14.91,7.95c-.42-11.79-1.54-23.12-1.41-34.67H88.24c-1.51,11.52-.87,22.86-2.34,34.19-2.94-.21-5.11-1.82-7.49-2.86C69.69,110.76,65.61,103.9,65,94.61c-.24-3.75-.81-7.48-1.24-11.34H40c0,6.64.12,13,0,19.26-.18,7.44,2.18,14,6,20.25a85.43,85.43,0,0,0,23.81,25.27c6,4.2,11.93,8.43,18.16,12.85ZM112.15,70.44c-.17-15.85-2.73-30.58-12.23-43.51C91.57,37.94,87.3,56,88.19,70.44Zm23.36-32.53v32.4H159.7c-.77-13.74-7.95-25.77-20.2-34.2C138.25,36,137.37,36.83,135.51,37.91ZM59.9,36c-11.52,8.68-19.23,19.41-20.17,34.4h24c0-10.29,0-20.24,0-30.2C63.73,37.76,62.65,36.46,59.9,36Z"/><path class="cls-2" d="M88,177.82V160.9c-6.23-4.42-12.18-8.65-18.16-12.85A85.43,85.43,0,0,1,46,122.78c-3.85-6.23-6.21-12.81-6-20.25.15-6.31,0-12.62,0-19.26H63.78c.43,3.86,1,7.59,1.24,11.34.59,9.29,4.67,16.15,13.39,19.93,2.38,1,4.55,2.65,7.49,2.86,1.47-11.33.83-22.67,2.34-34.19h23.63c-.13,11.55,1,22.88,1.41,34.67a52.63,52.63,0,0,0,14.91-7.95,13,13,0,0,0,4.71-7.46A80,80,0,0,0,135,88.69c.09-1.63-.26-3.34.89-5.32h23.92c-.36,15.24,1.41,30.53-9.14,43.85A111.22,111.22,0,0,1,127.09,150l-15.18,10.56v17.29Z"/><path class="cls-3" d="M112.15,70.44h-24C87.3,56,91.57,37.94,99.92,26.93,109.42,39.86,112,54.59,112.15,70.44Z"/><path class="cls-3" d="M135.51,37.91c1.86-1.08,2.74-1.91,4-1.8,12.25,8.43,19.43,20.46,20.2,34.2H135.51V37.91Z"/><path class="cls-3" d="M59.9,36c2.75.49,3.83,1.79,3.81,4.2-.05,10,0,19.91,0,30.2h-24C40.67,55.38,48.38,44.65,59.9,36Z"/></svg>