<svg id="Layer_1" data-name="Layer 1" xmlns="http://www.w3.org/2000/svg" viewBox="0 0 200 200"><defs><style>.cls-1{fill:#060404;}.cls-2{fill:#fa4702;}.cls-3{fill:#551901;}</style></defs><path class="cls-1" d="M155.57,36.36c-8.75,14.91-22.15,24.78-31.44,38.42,3.6,2.18,7.36,3.76,10.46,6.41,11.81,10.08,15.34,23.57,15.17,38.2-.28,24.52-13.54,42.9-37.17,48.57C91.2,173.1,69.77,171.54,51,158.21c-18.19-12.93-23.21-31.47-19.66-52.51,5.42-32.12,25.68-52,54.73-64.14,14.38-6,29.11-10.57,45-9.86A84.09,84.09,0,0,1,155.57,36.36ZM119.45,151.18c12.31-8.88,17.87-20.76,16.79-36-1.33-18.83-8.39-28.27-25.91-33.62-.26-.08-.42-.47-1.08-1.23,5.83-15.41,19.92-24.73,29.84-37.61-22.81-2.94-42.5,4.12-61.31,15.41C57.29,70.42,45.33,87.9,43.23,111.87c-1.07,12.19,1,23.56,9.56,32.88,12.5,13.67,35,18.78,52.66,12.24C110.93,157,115.33,154.44,119.45,151.18Z"/><path class="cls-2" d="M105.45,157c-17.67,6.54-40.16,1.43-52.66-12.24-8.52-9.32-10.63-20.69-9.56-32.88,2.1-24,14.06-41.45,34.55-53.76,18.81-11.29,38.5-18.35,61.31-15.41-9.92,12.88-24,22.2-29.84,37.61.66.76.82,1.15,1.08,1.23,17.52,5.35,24.58,14.79,25.91,33.62,1.08,15.26-4.48,27.14-16.79,36-1.14-1.26-.24-2.6.07-3.75,2.19-8.13,2-16.39,1.74-24.68-.25-9.85-4.3-17.28-13.56-21.23-10.22-4.35-20.76-4.16-31.07-.59-10.48,3.63-15.2,12.17-13.79,23.56q1.92,15.66,19.1,17.36c7.24.71,11.55-3.33,10.88-10.24-1.45-.65-2.9,0-4.35,0-3.85,0-7.82.09-9.17-4.76-1.22-4.37.7-9.94,4.5-11.63,10.18-4.52,23.93-.74,23.86,13.55C107.62,138.29,106.27,147.6,105.45,157Z"/><path class="cls-3" d="M105.45,157c.82-9.39,2.17-18.7,2.21-28.19.07-14.29-13.68-18.07-23.86-13.55-3.8,1.69-5.72,7.26-4.5,11.63,1.35,4.85,5.32,4.79,9.17,4.76,1.45,0,2.9-.68,4.35,0,.67,6.91-3.64,10.95-10.88,10.24q-17.18-1.71-19.1-17.36c-1.41-11.39,3.31-19.93,13.79-23.56,10.31-3.57,20.85-3.76,31.07.59,9.26,4,13.31,11.38,13.56,21.23.21,8.29.45,16.55-1.74,24.68-.31,1.15-1.21,2.49-.07,3.75C115.33,154.44,110.93,157,105.45,157Z"/></svg>