<svg id="Layer_1" data-name="Layer 1" xmlns="http://www.w3.org/2000/svg" viewBox="0 0 200 200"><defs><style>.cls-1{fill:#040505;}.cls-2{fill:#aacaf3;}.cls-3{fill:#3e63a0;}</style></defs><path class="cls-1" d="M82.31,136.49,41,100.91V45.36L82.34,9.86l41.52,35.69v55.24ZM51.14,50.23V96.07l31.2,26.81,30.88-26.51a15.17,15.17,0,0,0,.49-2.14c0-13.66.05-27.33.11-41,0-2.44-1.29-3.94-3-5.41C102.17,40.49,93.62,33.07,85,25.7a30.57,30.57,0,0,0-3-2Z"/><path class="cls-1" d="M133.92,104.91c10.27,10.77,20.57,21.59,31.77,33.35v22.81l-32.17,31.09-31.35-30.78V136.26Zm-.3,14.65-19.45,21.36v15.7l19.45,20.83L153,156.77v-16Z"/><path class="cls-2" d="M51.14,50.23,82,23.7a30.57,30.57,0,0,1,3,2c8.6,7.37,17.15,14.79,25.77,22.13,1.74,1.47,3,3,3,5.41-.06,13.66-.07,27.33-.11,41a15.17,15.17,0,0,1-.49,2.14L82.34,122.88,51.14,96.07Zm16,8.06v32.2c2.56,2.26,5,4.51,7.52,6.65s5.09,4.15,7.9,6.44L97.84,90.12V58.86L82.43,45.31Z"/><path class="cls-2" d="M133.62,119.56,153,140.73v16l-19.36,20.68-19.45-20.83v-15.7Z"/><path class="cls-3" d="M67.17,58.29l15.26-13L97.84,58.86V90.12L82.59,103.58c-2.81-2.29-5.4-4.32-7.9-6.44s-5-4.39-7.52-6.65Zm9.1,4.92V85.94l6,5L88,86.59V62.38l-5.86-4.69Z"/><path class="cls-2" d="M76.27,63.21l5.87-5.52L88,62.38V86.59L82.23,91l-6-5Z"/></svg>