<svg id="Layer_1" data-name="Layer 1" xmlns="http://www.w3.org/2000/svg" viewBox="0 0 240 240"><defs><style>.cls-1{fill:#010101;}.cls-2{fill:#6fc687;}.cls-3{fill:#579c6a;}</style></defs><path class="cls-1" d="M186.31,160.26c11,12.07,11.72,35.21,2.23,52.37-8.84,16-29.77,22.8-42.29,20.34-27.77-5.44-35.55-15.91-39.64-52-8.41,0-16.87.38-25.29-.11-7.78-.45-15.74-1-23.23-3-19.91-5.3-30.61-19.24-34.16-39.12a39.59,39.59,0,0,1-.66-5.19c-.11-2.73,0-5.47,0-8.5H50.36C44.15,119.78,38.55,114.2,34.85,107a41.77,41.77,0,0,1-4.77-23.83H53.87c-10.44-10.41-8-22.86-8.23-35.07H64.88V17.37h41.89V8.44h35.91V38.77h41.51c1.73,9.18-1.07,19-9.17,32.24h20.44c3.44,20.42-10.59,39.9-31.2,44h51.31C219.84,132.51,207.91,150.91,186.31,160.26ZM119.78,21.1c0,.75-.12,1.34-.12,1.94,0,55.59-.1,111.19.06,166.79a30.37,30.37,0,0,0,28.2,30.09c20.73,1.66,38.15-14.22,34-39-1.4-8.28-7.22-12.53-15.64-12.58-2.61,0-5.23,0-7.85,0-7.53.12-13.32,4.4-14.73,11.81-.89,4.71-.53,9.66-.83,14.49-.16,2.62,1.09,3.63,3.53,3.61,2.62,0,5.24-.08,7.86,0s3.64-1.06,3.6-3.56c-.06-3.2,0-6.41,0-9.7h12.74c0,2.32,0,4.42,0,6.52,0,11-5.2,17.37-16,19.05-13,2-24.68-3.94-24.56-20.59.37-55.1.14-110.2.13-165.3,0-1.19-.1-2.39-.15-3.56Zm-7.71,116.73H36.67a18.94,18.94,0,0,0,.29,2c3.87,15.42,15.44,26.1,32,27.48,14.09,1.16,28.33.62,42.5.8.18,0,.36-.31.57-.51Zm0-41.83h-68c4.19,11.08,12.17,17.76,22.4,22.08,10.93,4.62,22.48,6.26,34.22,6.73,3.79.15,7.6,0,11.4,0Zm25.69,51.14c12.32,0,24.28.49,36.17-.22,5.5-.33,11.17-2.37,16.22-4.77,5.62-2.68,8.92-7.87,10.8-14H137.76ZM58.26,60.76a43.06,43.06,0,0,0,.53,5.07c1.61,7,6.46,11,12.78,13.5,7.63,3,15.65,3.75,23.79,3.7,5.54,0,11.09,0,16.62,0V60.76Zm79.63,23.12v18.37c5.74,0,11.22.28,16.66-.07,6.66-.43,13-2.14,18.32-6.54a23.66,23.66,0,0,0,7.68-11.76Zm-.2-13.23c16.22,2.46,31.11-7.11,32.64-18.75H137.69ZM78,30.09V40.14h33.88v-10Z"/><path class="cls-2" d="M119.78,21.1H130c.05,1.17.15,2.37.15,3.56,0,55.1.24,110.2-.13,165.3-.12,16.65,11.55,22.61,24.56,20.59,10.78-1.68,16-8.07,16-19.05,0-2.1,0-4.2,0-6.52H157.79c0,3.29,0,6.5,0,9.7,0,2.5-1,3.67-3.6,3.56s-5.24,0-7.86,0c-2.44,0-3.69-1-3.53-3.61.3-4.83-.06-9.78.83-14.49,1.41-7.41,7.2-11.69,14.73-11.81,2.62,0,5.24,0,7.85,0,8.42,0,14.24,4.3,15.64,12.58,4.2,24.82-13.22,40.7-34,39a30.37,30.37,0,0,1-28.2-30.09c-.16-55.6-.06-111.2-.06-166.79C119.66,22.44,119.73,21.85,119.78,21.1Z"/><path class="cls-3" d="M112.07,137.83v29.8c-.21.2-.39.51-.57.51-14.17-.18-28.41.36-42.5-.8C52.4,166,40.83,155.28,37,139.86a18.94,18.94,0,0,1-.29-2Z"/><path class="cls-3" d="M112.07,96v28.83c-3.8,0-7.61.13-11.4,0-11.74-.47-23.29-2.11-34.22-6.73-10.23-4.32-18.21-11-22.4-22.08Z"/><path class="cls-3" d="M137.76,147.14v-19H201c-1.88,6.15-5.18,11.34-10.8,14-5.05,2.4-10.72,4.44-16.22,4.77C162,147.63,150.08,147.14,137.76,147.14Z"/><path class="cls-3" d="M58.26,60.76H112V83c-5.53,0-11.08,0-16.62,0-8.14,0-16.16-.66-23.79-3.7-6.32-2.5-11.17-6.52-12.78-13.5A43.06,43.06,0,0,1,58.26,60.76Z"/><path class="cls-3" d="M137.89,83.88h42.66a23.66,23.66,0,0,1-7.68,11.76c-5.3,4.4-11.66,6.11-18.32,6.54-5.44.35-10.92.07-16.66.07Z"/><path class="cls-3" d="M137.69,70.65V51.9h32.64C168.8,63.54,153.91,73.11,137.69,70.65Z"/><path class="cls-3" d="M78,30.09h33.88V40.14H78Z"/></svg>