<svg id="Layer_1" data-name="Layer 1" xmlns="http://www.w3.org/2000/svg" viewBox="0 0 200 200"><defs><style>.cls-1{fill:#080804;}.cls-2{fill:#fcfb03;}</style></defs><path class="cls-1" d="M83.65,127.49c-18.87-.26-36.79-.51-54.71-.79-.22,0-.44-.45-1.19-1.27,1-1.19,2-2.58,3.16-3.77Q61.62,90.9,92.38,60.17c2.09-2.09,4.18-4.19,6.93-6.93H74.85L44,25.65c0-3.14,1.47-4.41,4-4.53.83,0,1.66,0,2.49,0h125V26.3q0,44.73,0,89.46c0,2.06.61,4.38-2,6.28l-16.44-13.63-73,77.4H29.47c.86-1.75,1.21-3.12,2.06-4.05,3.82-4.17,7.76-8.24,11.7-12.31l37.88-39.12C81.78,129.64,82.39,128.9,83.65,127.49ZM135,55.24h19V93.5l11.65,10.41V31.2H65.56l16,12.12H123.7L52,115.44l.45.9h57.19l.48.94L51.21,175H76.05c.34-.14.54-.16.65-.27q33.71-34.49,67.39-69a12.33,12.33,0,0,0,1.43-2.85H88C104.18,86.52,119.57,70.91,135,55.24Zm4.47,9.08c-8.31,9.25-16.56,18.45-25.35,28.25H145c-.08-9.58.05-18.94-.33-28.52Z"/><path class="cls-2" d="M135,55.24c-15.45,15.67-30.84,31.28-47,47.64h57.49a12.33,12.33,0,0,1-1.43,2.85q-33.66,34.54-67.39,69c-.11.11-.31.13-.65.27H51.21l58.91-57.73-.48-.94H52.45l-.45-.9,71.7-72.12H81.58l-16-12.12H165.68v72.71L154,93.5V55.24Z"/></svg>