<svg id="Layer_1" data-name="Layer 1" xmlns="http://www.w3.org/2000/svg" viewBox="0 0 200 200"><defs><style>.cls-1{fill:#060708;}.cls-2{fill:#91e8fb;}.cls-3{fill:#4c96a8;}</style></defs><path class="cls-1" d="M99.59,167.66c-7,0-14.08.77-21-.16-16.13-2.18-28-14.84-30.7-31-2.48-14.62,1.35-26.92,12.22-37A16.29,16.29,0,0,1,62,97.73c15.24-10.26,20.13-26,23-42.91A128.92,128.92,0,0,1,87.76,41.7c2.16-7.67,6.9-11.39,13.35-11,5.51.38,9.59,5.05,10.92,12.41a251,251,0,0,0,6.91,29,49.48,49.48,0,0,0,16.67,24.73c8.68,7.06,14.94,15.81,16.82,27.34,3.64,22.26-12.4,42.61-34.86,43.68-6,.29-12,0-18,0Zm.35-7.68v-.11c5.82,0,11.65.06,17.47,0a21.87,21.87,0,0,0,10.5-2.71c11.09-6.19,16.74-18.8,14.78-32.34-1.28-8.76-5.65-15.56-12.33-21a62.53,62.53,0,0,1-22-35.27,127.28,127.28,0,0,1-3.22-20.16c-.27-3.83-.62-8.89-5.24-8.81-4.18.07-4.62,5.08-4.86,8.72-.8,11.76-4.22,22.79-8.64,33.61C82.59,91.29,76,98.48,68.62,105,60.4,112.32,56.21,121.12,57,132.35c1.17,17.17,11.33,27.27,28.48,27.62C90.29,160.07,95.11,160,99.94,160Z"/><path class="cls-2" d="M99.94,160c-4.83,0-9.65.09-14.48,0-17.15-.35-27.31-10.45-28.48-27.62-.77-11.23,3.42-20,11.64-27.32,7.39-6.55,14-13.74,17.8-23.1,4.42-10.82,7.84-21.85,8.64-33.61.24-3.64.68-8.65,4.86-8.72,4.62-.08,5,5,5.24,8.81a127.28,127.28,0,0,0,3.22,20.16,62.53,62.53,0,0,0,22,35.27c6.68,5.4,11,12.2,12.33,21,2,13.54-3.69,26.15-14.78,32.34a21.87,21.87,0,0,1-10.5,2.71c-5.82.08-11.65,0-17.47,0Zm25.61-36.73c-4.36,12.87-13.92,15.68-25.48,15.78-11.78.11-20.49-4.58-26-16-2.63,8.24,5,19.87,10.65,22.43,12.33,5.63,29.63,3,37.37-6C126.87,134,128.55,127.61,125.55,123.25Z"/><path class="cls-3" d="M125.55,123.25c3,4.36,1.32,10.7-3.43,16.19-7.74,8.95-25,11.6-37.37,6C79.13,142.85,71.47,131.22,74.1,123c5.48,11.47,14.19,16.16,26,16C111.63,138.93,121.19,136.12,125.55,123.25Z"/></svg>